<svg width="309" height="27" viewBox="0 0 309 27" fill="none" xmlns="http://www.w3.org/2000/svg">
<path d="M0 27C0 12.0883 12.0883 0 27 0H309C309 14.9117 296.912 27 282 27H0Z" fill="#4F2170"/>
<g opacity="0.6" filter="url(#filter0_d)">
<path d="M36.8573 16.8474C36.9479 16.7574 36.9992 16.635 37 16.5071C37.0006 16.4436 36.9882 16.3807 36.9637 16.3222C36.9391 16.2637 36.9029 16.2108 36.8573 16.1668L28.8454 8.14227C28.801 8.09721 28.7481 8.06142 28.6898 8.037C28.6315 8.01258 28.5689 8 28.5057 8C28.4424 8 28.3798 8.01258 28.3215 8.037C28.2632 8.06142 28.2103 8.09721 28.1659 8.14227L20.1523 16.1668C20.1052 16.2109 20.0675 16.2641 20.0413 16.3231C20.0152 16.3822 20.0011 16.4459 20.0001 16.5104C19.999 16.575 20.0109 16.6391 20.0351 16.699C20.0593 16.7589 20.0952 16.8133 20.1408 16.859C20.1864 16.9046 20.2407 16.9406 20.3005 16.9649C20.3603 16.9891 20.4243 17.001 20.4888 16.9999C20.5533 16.9989 20.6169 16.9848 20.6758 16.9586C20.7348 16.9324 20.7878 16.8946 20.8319 16.8474L28.5057 9.16321L36.1777 16.8474C36.2223 16.8923 36.2752 16.9279 36.3335 16.9522C36.3918 16.9765 36.4543 16.989 36.5175 16.989C36.5807 16.989 36.6432 16.9765 36.7015 16.9522C36.7598 16.9279 36.8128 16.8923 36.8573 16.8474Z" fill="white"/>
</g>
<g opacity="0.6" filter="url(#filter1_d)">
<path d="M272.143 8.15258C272.052 8.24263 272.001 8.36501 272 8.49289C271.999 8.55636 272.012 8.61927 272.036 8.67779C272.061 8.73631 272.097 8.78919 272.143 8.8332L280.155 16.8577C280.199 16.9028 280.252 16.9386 280.31 16.963C280.369 16.9874 280.431 17 280.494 17C280.558 17 280.62 16.9874 280.678 16.963C280.737 16.9386 280.79 16.9028 280.834 16.8577L288.848 8.8332C288.895 8.78908 288.933 8.73592 288.959 8.67688C288.985 8.61785 288.999 8.55415 289 8.48957C289.001 8.42499 288.989 8.36085 288.965 8.30098C288.941 8.2411 288.905 8.18671 288.859 8.14104C288.814 8.09537 288.759 8.05935 288.699 8.03513C288.64 8.01092 288.576 7.99899 288.511 8.00007C288.447 8.00114 288.383 8.0152 288.324 8.0414C288.265 8.0676 288.212 8.10541 288.168 8.15258L280.494 15.8368L272.822 8.15258C272.778 8.10772 272.725 8.07212 272.666 8.04782C272.608 8.02353 272.546 8.01102 272.482 8.01102C272.419 8.01102 272.357 8.02353 272.299 8.04782C272.24 8.07212 272.187 8.10772 272.143 8.15258Z" fill="white"/>
</g>
<path d="M101.504 17C102.324 17 102.954 16.74 103.314 16.37C103.564 16.12 103.804 15.69 103.804 15.06C103.804 14.53 103.624 14.1 103.354 13.84C103.144 13.64 102.794 13.48 102.444 13.44C102.694 13.33 102.844 13.18 102.984 12.92C103.124 12.64 103.174 12.39 103.174 12.1C103.174 11.51 102.994 11.1 102.764 10.85C102.354 10.4 101.784 10.33 101.304 10.33H98.7244V17H101.504ZM100.454 11.66H100.774C101.114 11.66 101.324 11.75 101.434 11.86C101.534 11.97 101.594 12.14 101.594 12.31C101.594 12.46 101.544 12.64 101.434 12.75C101.254 12.94 100.954 12.96 100.774 12.96H100.454V11.66ZM100.454 14.25H100.814C101.244 14.25 101.674 14.26 101.884 14.47C101.984 14.57 102.054 14.74 102.054 14.95C102.054 15.14 101.994 15.29 101.914 15.38C101.724 15.6 101.324 15.65 100.844 15.65H100.454V14.25ZM110.556 17H112.296V10.33H110.556V17ZM104.906 17H107.386C108.056 17 108.936 16.94 109.506 16.36C109.926 15.93 110.006 15.41 110.006 14.96C110.006 14.57 109.936 14 109.476 13.55C108.886 12.97 108.016 12.93 107.486 12.93H106.646V10.33H104.906V17ZM106.646 15.66V14.27H107.316C107.566 14.27 107.866 14.29 108.056 14.47C108.156 14.56 108.246 14.71 108.246 14.96C108.246 15.17 108.176 15.35 108.066 15.46C107.866 15.66 107.506 15.66 107.316 15.66H106.646ZM113.695 17H116.055C116.855 17 117.655 16.92 118.185 16.4C118.545 16.04 118.735 15.52 118.735 14.98C118.735 14.42 118.535 13.93 118.225 13.6C117.725 13.08 116.965 12.95 116.115 12.95H115.435V11.8H118.035V10.33H113.695V17ZM115.435 15.65V14.27H116.035C116.255 14.27 116.575 14.28 116.775 14.45C116.885 14.55 116.975 14.72 116.975 14.95C116.975 15.15 116.905 15.31 116.805 15.42C116.595 15.64 116.225 15.65 116.035 15.65H115.435ZM123.628 10.33H119.838V17H123.628V15.53H121.568V14.38H123.518V12.91H121.568V11.8H123.628V10.33ZM127.55 14.79C128.07 14.79 128.69 14.72 129.21 14.21C129.73 13.7 129.8 13.08 129.8 12.55C129.8 11.99 129.7 11.43 129.18 10.93C128.67 10.44 128.07 10.33 127.49 10.33H124.73V17H126.46V14.79H127.55ZM126.46 11.73H127.05C127.27 11.73 127.59 11.76 127.79 11.97C127.97 12.15 127.99 12.39 127.99 12.57C127.99 12.73 127.98 13 127.77 13.18C127.56 13.37 127.22 13.39 127.04 13.39H126.46V11.73ZM130.717 10.33V17H132.487L134.987 12.8V17H136.727V10.33H134.957L132.457 14.53V10.33H130.717ZM145.253 14.77C144.643 15.44 144.003 15.47 143.743 15.47C143.253 15.47 142.793 15.28 142.503 15.01C142.153 14.68 141.963 14.17 141.963 13.71C141.963 13.24 142.133 12.72 142.543 12.34C142.863 12.05 143.243 11.9 143.743 11.9C144.033 11.9 144.693 11.94 145.253 12.63V10.56C144.543 10.27 144.013 10.22 143.693 10.22C142.653 10.22 141.763 10.66 141.173 11.26C140.573 11.87 140.163 12.77 140.163 13.72C140.163 14.59 140.523 15.5 141.173 16.15C141.723 16.69 142.593 17.15 143.753 17.15C144.183 17.15 144.563 17.07 145.253 16.82V14.77ZM149.131 17C149.951 17 150.581 16.74 150.941 16.37C151.191 16.12 151.431 15.69 151.431 15.06C151.431 14.53 151.251 14.1 150.981 13.84C150.771 13.64 150.421 13.48 150.071 13.44C150.321 13.33 150.471 13.18 150.611 12.92C150.751 12.64 150.801 12.39 150.801 12.1C150.801 11.51 150.621 11.1 150.391 10.85C149.981 10.4 149.411 10.33 148.931 10.33H146.351V17H149.131ZM148.081 11.66H148.401C148.741 11.66 148.951 11.75 149.061 11.86C149.161 11.97 149.221 12.14 149.221 12.31C149.221 12.46 149.171 12.64 149.061 12.75C148.881 12.94 148.581 12.96 148.401 12.96H148.081V11.66ZM148.081 14.25H148.441C148.871 14.25 149.301 14.26 149.511 14.47C149.611 14.57 149.681 14.74 149.681 14.95C149.681 15.14 149.621 15.29 149.541 15.38C149.351 15.6 148.951 15.65 148.471 15.65H148.081V14.25ZM159.593 13.67C159.593 12.78 159.253 11.84 158.543 11.17C157.863 10.52 156.903 10.18 155.913 10.18C154.923 10.18 153.963 10.52 153.283 11.17C152.573 11.84 152.233 12.78 152.233 13.67C152.233 14.55 152.573 15.48 153.283 16.16C153.963 16.81 154.923 17.15 155.913 17.15C156.903 17.15 157.863 16.81 158.543 16.16C159.253 15.48 159.593 14.55 159.593 13.67ZM155.913 11.86C156.373 11.86 156.883 12.04 157.253 12.39C157.563 12.69 157.793 13.15 157.793 13.67C157.793 14.18 157.563 14.64 157.253 14.95C156.943 15.26 156.503 15.47 155.913 15.47C155.333 15.47 154.883 15.25 154.563 14.94C154.313 14.7 154.033 14.29 154.033 13.7C154.033 13.23 154.203 12.74 154.563 12.39C154.923 12.03 155.433 11.86 155.913 11.86ZM162.427 12.91V10.33H160.697V17H162.427V14.25H163.287C163.367 14.91 163.637 15.64 164.357 16.29C165.007 16.87 165.757 17.15 166.757 17.15C168.077 17.15 168.897 16.64 169.387 16.17C170.047 15.54 170.457 14.61 170.457 13.66C170.457 12.69 170.047 11.78 169.387 11.16C168.877 10.67 168.037 10.18 166.757 10.18C165.897 10.18 165.077 10.4 164.377 11C163.607 11.66 163.377 12.42 163.287 12.91H162.427ZM166.817 11.86C167.247 11.86 167.707 12 168.097 12.38C168.457 12.73 168.647 13.21 168.647 13.64C168.647 14.1 168.427 14.61 168.097 14.94C167.787 15.24 167.327 15.47 166.807 15.47C166.377 15.47 165.897 15.33 165.507 14.95C165.147 14.61 164.957 14.15 164.957 13.67C164.957 13.17 165.177 12.72 165.487 12.41C165.817 12.08 166.287 11.86 166.817 11.86ZM178.37 17H180.22L177.71 10.33H175.82L173.26 17H175.09L175.54 15.88H177.96L178.37 17ZM176.02 14.56L176.75 12.4L177.5 14.56H176.02ZM182.72 10.33H180.99V17H182.72V14.11L184.98 17H187.22L184.33 13.49L186.98 10.33H184.84L182.72 13.08V10.33ZM187.933 17H192.993V18.5H194.553V15.54H193.713V10.33H191.973V15.54H189.673V10.33H187.933V17ZM195.404 10.33V17H197.174L199.674 12.8V17H201.414V10.33H199.644L197.144 14.53V10.33H195.404ZM204.546 12.91V10.33H202.816V17H204.546V14.25H205.406C205.486 14.91 205.756 15.64 206.476 16.29C207.126 16.87 207.876 17.15 208.876 17.15C210.196 17.15 211.016 16.64 211.506 16.17C212.166 15.54 212.576 14.61 212.576 13.66C212.576 12.69 212.166 11.78 211.506 11.16C210.996 10.67 210.156 10.18 208.876 10.18C208.016 10.18 207.196 10.4 206.496 11C205.726 11.66 205.496 12.42 205.406 12.91H204.546ZM208.936 11.86C209.366 11.86 209.826 12 210.216 12.38C210.576 12.73 210.766 13.21 210.766 13.64C210.766 14.1 210.546 14.61 210.216 14.94C209.906 15.24 209.446 15.47 208.926 15.47C208.496 15.47 208.016 15.33 207.626 14.95C207.266 14.61 207.076 14.15 207.076 13.67C207.076 13.17 207.296 12.72 207.606 12.41C207.936 12.08 208.406 11.86 208.936 11.86Z" fill="white"/>
<defs>
<filter id="filter0_d" x="16" y="8" width="25" height="17" filterUnits="userSpaceOnUse" color-interpolation-filters="sRGB">
<feFlood flood-opacity="0" result="BackgroundImageFix"/>
<feColorMatrix in="SourceAlpha" type="matrix" values="0 0 0 0 0 0 0 0 0 0 0 0 0 0 0 0 0 0 127 0"/>
<feOffset dy="4"/>
<feGaussianBlur stdDeviation="2"/>
<feColorMatrix type="matrix" values="0 0 0 0 0 0 0 0 0 0 0 0 0 0 0 0 0 0 0.25 0"/>
<feBlend mode="normal" in2="BackgroundImageFix" result="effect1_dropShadow"/>
<feBlend mode="normal" in="SourceGraphic" in2="effect1_dropShadow" result="shape"/>
</filter>
<filter id="filter1_d" x="268" y="8" width="25" height="17" filterUnits="userSpaceOnUse" color-interpolation-filters="sRGB">
<feFlood flood-opacity="0" result="BackgroundImageFix"/>
<feColorMatrix in="SourceAlpha" type="matrix" values="0 0 0 0 0 0 0 0 0 0 0 0 0 0 0 0 0 0 127 0"/>
<feOffset dy="4"/>
<feGaussianBlur stdDeviation="2"/>
<feColorMatrix type="matrix" values="0 0 0 0 0 0 0 0 0 0 0 0 0 0 0 0 0 0 0.25 0"/>
<feBlend mode="normal" in2="BackgroundImageFix" result="effect1_dropShadow"/>
<feBlend mode="normal" in="SourceGraphic" in2="effect1_dropShadow" result="shape"/>
</filter>
</defs>
</svg>
