<svg width="190" height="190" viewBox="0 0 190 190" fill="none" xmlns="http://www.w3.org/2000/svg">
<circle cx="95" cy="95" r="95" fill="url(#paint0_linear)"/>
<path d="M48.7517 75C50.5557 75 51.9417 74.428 52.7337 73.614C53.2837 73.064 53.8117 72.118 53.8117 70.732C53.8117 69.566 53.4157 68.62 52.8217 68.048C52.3597 67.608 51.5897 67.256 50.8197 67.168C51.3697 66.926 51.6997 66.596 52.0077 66.024C52.3157 65.408 52.4257 64.858 52.4257 64.22C52.4257 62.922 52.0297 62.02 51.5237 61.47C50.6217 60.48 49.3677 60.326 48.3117 60.326H42.6357V75H48.7517ZM46.4417 63.252H47.1457C47.8937 63.252 48.3557 63.45 48.5977 63.692C48.8177 63.934 48.9497 64.308 48.9497 64.682C48.9497 65.012 48.8397 65.408 48.5977 65.65C48.2017 66.068 47.5417 66.112 47.1457 66.112H46.4417V63.252ZM46.4417 68.95H47.2337C48.1797 68.95 49.1257 68.972 49.5877 69.434C49.8077 69.654 49.9617 70.028 49.9617 70.49C49.9617 70.908 49.8297 71.238 49.6537 71.436C49.2357 71.92 48.3557 72.03 47.2997 72.03H46.4417V68.95ZM68.6653 75H72.4933V60.326H68.6653V75ZM56.2353 75H61.6913C63.1653 75 65.1013 74.868 66.3553 73.592C67.2793 72.646 67.4553 71.502 67.4553 70.512C67.4553 69.654 67.3013 68.4 66.2893 67.41C64.9913 66.134 63.0773 66.046 61.9113 66.046H60.0633V60.326H56.2353V75ZM60.0633 72.052V68.994H61.5373C62.0873 68.994 62.7473 69.038 63.1653 69.434C63.3853 69.632 63.5833 69.962 63.5833 70.512C63.5833 70.974 63.4293 71.37 63.1873 71.612C62.7473 72.052 61.9553 72.052 61.5373 72.052H60.0633ZM75.5713 75H80.7633C82.5233 75 84.2833 74.824 85.4493 73.68C86.2413 72.888 86.6593 71.744 86.6593 70.556C86.6593 69.324 86.2193 68.246 85.5373 67.52C84.4373 66.376 82.7653 66.09 80.8953 66.09H79.3993V63.56H85.1193V60.326H75.5713V75ZM79.3993 72.03V68.994H80.7193C81.2033 68.994 81.9073 69.016 82.3473 69.39C82.5893 69.61 82.7873 69.984 82.7873 70.49C82.7873 70.93 82.6333 71.282 82.4133 71.524C81.9513 72.008 81.1373 72.03 80.7193 72.03H79.3993ZM97.4229 60.326H89.0849V75H97.4229V71.766H92.8909V69.236H97.1809V66.002H92.8909V63.56H97.4229V60.326ZM106.053 70.138C107.197 70.138 108.561 69.984 109.705 68.862C110.849 67.74 111.003 66.376 111.003 65.21C111.003 63.978 110.783 62.746 109.639 61.646C108.517 60.568 107.197 60.326 105.921 60.326H99.8486V75H103.655V70.138H106.053ZM103.655 63.406H104.953C105.437 63.406 106.141 63.472 106.581 63.934C106.977 64.33 107.021 64.858 107.021 65.254C107.021 65.606 106.999 66.2 106.537 66.596C106.075 67.014 105.327 67.058 104.931 67.058H103.655V63.406ZM113.019 60.326V75H116.913L122.413 65.76V75H126.241V60.326H122.347L116.847 69.566V60.326H113.019ZM137.993 63.56V60.326H127.939V63.56H131.063V75H134.869V63.56H137.993ZM148.019 60.326H139.681V75H148.019V71.766H143.487V69.236H147.777V66.002H143.487V63.56H148.019V60.326ZM72.8749 98.094C71.5329 99.568 70.1249 99.634 69.5529 99.634C68.4749 99.634 67.4629 99.216 66.8249 98.622C66.0549 97.896 65.6369 96.774 65.6369 95.762C65.6369 94.728 66.0109 93.584 66.9129 92.748C67.6169 92.11 68.4529 91.78 69.5529 91.78C70.1909 91.78 71.6429 91.868 72.8749 93.386V88.832C71.3129 88.194 70.1469 88.084 69.4429 88.084C67.1549 88.084 65.1969 89.052 63.8989 90.372C62.5789 91.714 61.6769 93.694 61.6769 95.784C61.6769 97.698 62.4689 99.7 63.8989 101.13C65.1089 102.318 67.0229 103.33 69.5749 103.33C70.5209 103.33 71.3569 103.154 72.8749 102.604V98.094ZM81.408 103C83.212 103 84.598 102.428 85.39 101.614C85.94 101.064 86.468 100.118 86.468 98.732C86.468 97.566 86.072 96.62 85.478 96.048C85.016 95.608 84.246 95.256 83.476 95.168C84.026 94.926 84.356 94.596 84.664 94.024C84.972 93.408 85.082 92.858 85.082 92.22C85.082 90.922 84.686 90.02 84.18 89.47C83.278 88.48 82.024 88.326 80.968 88.326H75.292V103H81.408ZM79.098 91.252H79.802C80.55 91.252 81.012 91.45 81.254 91.692C81.474 91.934 81.606 92.308 81.606 92.682C81.606 93.012 81.496 93.408 81.254 93.65C80.858 94.068 80.198 94.112 79.802 94.112H79.098V91.252ZM79.098 96.95H79.89C80.836 96.95 81.782 96.972 82.244 97.434C82.464 97.654 82.618 98.028 82.618 98.49C82.618 98.908 82.486 99.238 82.31 99.436C81.892 99.92 81.012 100.03 79.956 100.03H79.098V96.95ZM104.424 95.674C104.424 93.716 103.676 91.648 102.114 90.174C100.618 88.744 98.5056 87.996 96.3276 87.996C94.1496 87.996 92.0376 88.744 90.5416 90.174C88.9796 91.648 88.2316 93.716 88.2316 95.674C88.2316 97.61 88.9796 99.656 90.5416 101.152C92.0376 102.582 94.1496 103.33 96.3276 103.33C98.5056 103.33 100.618 102.582 102.114 101.152C103.676 99.656 104.424 97.61 104.424 95.674ZM96.3276 91.692C97.3396 91.692 98.4616 92.088 99.2756 92.858C99.9576 93.518 100.464 94.53 100.464 95.674C100.464 96.796 99.9576 97.808 99.2756 98.49C98.5936 99.172 97.6256 99.634 96.3276 99.634C95.0516 99.634 94.0616 99.15 93.3576 98.468C92.8076 97.94 92.1916 97.038 92.1916 95.74C92.1916 94.706 92.5656 93.628 93.3576 92.858C94.1496 92.066 95.2716 91.692 96.3276 91.692ZM110.659 94.002V88.326H106.853V103H110.659V96.95H112.551C112.727 98.402 113.321 100.008 114.905 101.438C116.335 102.714 117.985 103.33 120.185 103.33C123.089 103.33 124.893 102.208 125.971 101.174C127.422 99.788 128.325 97.742 128.325 95.652C128.325 93.518 127.422 91.516 125.971 90.152C124.849 89.074 123.001 87.996 120.185 87.996C118.293 87.996 116.489 88.48 114.949 89.8C113.255 91.252 112.749 92.924 112.551 94.002H110.659ZM120.317 91.692C121.263 91.692 122.275 92 123.133 92.836C123.925 93.606 124.343 94.662 124.343 95.608C124.343 96.62 123.859 97.742 123.133 98.468C122.451 99.128 121.439 99.634 120.295 99.634C119.349 99.634 118.293 99.326 117.434 98.49C116.643 97.742 116.225 96.73 116.225 95.674C116.225 94.574 116.709 93.584 117.391 92.902C118.117 92.176 119.151 91.692 120.317 91.692ZM62.6323 131H66.7023L61.1803 116.326H57.0223L51.3903 131H55.4163L56.4063 128.536H61.7303L62.6323 131ZM57.4623 125.632L59.0683 120.88L60.7183 125.632H57.4623ZM72.2015 116.326H68.3955V131H72.2015V124.642L77.1735 131H82.1015L75.7435 123.278L81.5735 116.326H76.8655L72.2015 122.376V116.326ZM83.6709 131H94.8029V134.3H98.2349V127.788H96.3869V116.326H92.5589V127.788H87.4989V116.326H83.6709V131ZM100.106 116.326V131H104L109.5 121.76V131H113.328V116.326H109.434L103.934 125.566V116.326H100.106ZM120.219 122.002V116.326H116.413V131H120.219V124.95H122.111C122.287 126.402 122.881 128.008 124.465 129.438C125.895 130.714 127.545 131.33 129.745 131.33C132.649 131.33 134.453 130.208 135.531 129.174C136.983 127.788 137.885 125.742 137.885 123.652C137.885 121.518 136.983 119.516 135.531 118.152C134.409 117.074 132.561 115.996 129.745 115.996C127.853 115.996 126.049 116.48 124.509 117.8C122.815 119.252 122.309 120.924 122.111 122.002H120.219ZM129.877 119.692C130.823 119.692 131.835 120 132.693 120.836C133.485 121.606 133.903 122.662 133.903 123.608C133.903 124.62 133.419 125.742 132.693 126.468C132.011 127.128 130.999 127.634 129.855 127.634C128.909 127.634 127.853 127.326 126.995 126.49C126.203 125.742 125.785 124.73 125.785 123.674C125.785 122.574 126.269 121.584 126.951 120.902C127.677 120.176 128.711 119.692 129.877 119.692Z" fill="white"/>
<g opacity="0.6" filter="url(#filter0_d)">
<path d="M159.288 110.731C159.458 110.902 159.689 110.999 159.931 111C160.051 111.001 160.17 110.978 160.28 110.932C160.391 110.885 160.491 110.817 160.574 110.731L175.731 95.6502C175.816 95.5666 175.884 95.467 175.93 95.3573C175.976 95.2475 176 95.1296 176 95.0106C176 94.8916 175.976 94.7738 175.93 94.664C175.884 94.5542 175.816 94.4547 175.731 94.3711L160.574 79.2868C160.49 79.1981 160.39 79.1271 160.279 79.0778C160.167 79.0286 160.047 79.0021 159.925 79.0001C159.803 78.9981 159.682 79.0205 159.569 79.066C159.455 79.1115 159.353 79.1792 159.266 79.2651C159.18 79.3509 159.112 79.4531 159.066 79.5656C159.021 79.6782 158.998 79.7987 159 79.9201C159.002 80.0414 159.029 80.1612 159.078 80.2721C159.128 80.3831 159.199 80.483 159.288 80.5659L173.803 95.0106L159.288 109.452C159.203 109.536 159.136 109.636 159.09 109.745C159.044 109.855 159.021 109.973 159.021 110.092C159.021 110.211 159.044 110.328 159.09 110.438C159.136 110.548 159.203 110.648 159.288 110.731Z" fill="white"/>
</g>
<g opacity="0.6" filter="url(#filter1_d)">
<path d="M30.7118 79.2687C30.5417 79.098 30.3105 79.0014 30.069 79C29.9491 78.9989 29.8303 79.0222 29.7197 79.0684C29.6092 79.1145 29.5093 79.1827 29.4262 79.2687L14.2687 94.3498C14.1836 94.4334 14.116 94.533 14.0699 94.6427C14.0238 94.7525 14 94.8704 14 94.9894C14 95.1084 14.0238 95.2262 14.0699 95.336C14.116 95.4458 14.1836 95.5453 14.2687 95.6289L29.4262 110.713C29.5095 110.802 29.6099 110.873 29.7214 110.922C29.833 110.971 29.9533 110.998 30.0753 111C30.1972 111.002 30.3184 110.979 30.4315 110.934C30.5446 110.888 30.6473 110.821 30.7336 110.735C30.8199 110.649 30.8879 110.547 30.9336 110.434C30.9794 110.322 31.0019 110.201 30.9999 110.08C30.9978 109.959 30.9713 109.839 30.9218 109.728C30.8723 109.617 30.8009 109.517 30.7118 109.434L16.1972 94.9894L30.7118 80.5478C30.7965 80.464 30.8638 80.3643 30.9097 80.2546C30.9556 80.1448 30.9792 80.0271 30.9792 79.9082C30.9792 79.7893 30.9556 79.6716 30.9097 79.5619C30.8638 79.4521 30.7965 79.3525 30.7118 79.2687Z" fill="white"/>
</g>
<defs>
<filter id="filter0_d" x="155" y="79" width="25" height="40" filterUnits="userSpaceOnUse" color-interpolation-filters="sRGB">
<feFlood flood-opacity="0" result="BackgroundImageFix"/>
<feColorMatrix in="SourceAlpha" type="matrix" values="0 0 0 0 0 0 0 0 0 0 0 0 0 0 0 0 0 0 127 0"/>
<feOffset dy="4"/>
<feGaussianBlur stdDeviation="2"/>
<feColorMatrix type="matrix" values="0 0 0 0 0 0 0 0 0 0 0 0 0 0 0 0 0 0 0.25 0"/>
<feBlend mode="normal" in2="BackgroundImageFix" result="effect1_dropShadow"/>
<feBlend mode="normal" in="SourceGraphic" in2="effect1_dropShadow" result="shape"/>
</filter>
<filter id="filter1_d" x="10" y="79" width="25" height="40" filterUnits="userSpaceOnUse" color-interpolation-filters="sRGB">
<feFlood flood-opacity="0" result="BackgroundImageFix"/>
<feColorMatrix in="SourceAlpha" type="matrix" values="0 0 0 0 0 0 0 0 0 0 0 0 0 0 0 0 0 0 127 0"/>
<feOffset dy="4"/>
<feGaussianBlur stdDeviation="2"/>
<feColorMatrix type="matrix" values="0 0 0 0 0 0 0 0 0 0 0 0 0 0 0 0 0 0 0.25 0"/>
<feBlend mode="normal" in2="BackgroundImageFix" result="effect1_dropShadow"/>
<feBlend mode="normal" in="SourceGraphic" in2="effect1_dropShadow" result="shape"/>
</filter>
<linearGradient id="paint0_linear" x1="38" y1="106" x2="142" y2="105" gradientUnits="userSpaceOnUse">
<stop stop-color="#2E4673"/>
<stop offset="1" stop-color="#776CB1"/>
</linearGradient>
</defs>
</svg>
